# xmcd
#
# Track frame offsets:
#	150
#	23833
#	43286
#	59036
#	78564
#	100643
#	122534
#	138706
#	160375
#	182023
#	200291
#	234756
#
# Disc length: 3470 seconds
#
# Revision: 1
# Processed by: cddbd v1.5.2PL0 Copyright (c) Steve Scherf et al.
# Submitted via: audiograbber 1.83.01
#
DISCID=a00d8c0c
DTITLE=Hamburg Blues Band - Mad Dog Blues
DYEAR=2008
DGENRE=Blues
TTITLE0=Bad To The Bone
TTITLE1=Can`t Last Forever
TTITLE2=Wishing Well
TTITLE3=Into The Night
TTITLE4=Birds Go Crazy
TTITLE5=It Ain`t Right
TTITLE6=Weird
TTITLE7=Easy As That
TTITLE8=Trouble Man
TTITLE9=Don`t Wanna Sing The Blues
TTITLE10=Sing The Blues For You
TTITLE11=All Or Nothing
EXTD=
EXTT0=
EXTT1=
EXTT2=
EXTT3=
EXTT4=
EXTT5=
EXTT6=
EXTT7=
EXTT8=
EXTT9=
EXTT10=
EXTT11=
PLAYORDER=
